<mxfile host="app.diagrams.net" modified="2023-10-31T13:57:51.179Z" agent="Mozilla/5.0 (Windows NT 10.0; Win64; x64) AppleWebKit/537.36 (KHTML, like Gecko) Chrome/118.0.0.0 Safari/537.36" etag="JVjInWebEJ6NymRblcor" version="22.0.8" type="device">
  <diagram name="Страница — 1" id="eSW8s5S4NEh8XBNbiReu">
    <mxGraphModel dx="1434" dy="800" grid="1" gridSize="10" guides="1" tooltips="1" connect="1" arrows="1" fold="1" page="1" pageScale="1" pageWidth="827" pageHeight="1169" math="0" shadow="0">
      <root>
        <mxCell id="0" />
        <mxCell id="1" parent="0" />
        <mxCell id="1xc2x69jxkYTy_ve66EK-4" style="edgeStyle=orthogonalEdgeStyle;rounded=0;orthogonalLoop=1;jettySize=auto;html=1;exitX=0.5;exitY=1;exitDx=0;exitDy=0;entryX=0.5;entryY=0;entryDx=0;entryDy=0;" edge="1" parent="1" source="1xc2x69jxkYTy_ve66EK-1" target="1xc2x69jxkYTy_ve66EK-2">
          <mxGeometry relative="1" as="geometry" />
        </mxCell>
        <mxCell id="1xc2x69jxkYTy_ve66EK-1" value="Начало" style="ellipse;whiteSpace=wrap;html=1;" vertex="1" parent="1">
          <mxGeometry x="354" y="40" width="120" height="50" as="geometry" />
        </mxCell>
        <mxCell id="1xc2x69jxkYTy_ve66EK-8" style="edgeStyle=orthogonalEdgeStyle;rounded=0;orthogonalLoop=1;jettySize=auto;html=1;exitX=0.5;exitY=1;exitDx=0;exitDy=0;entryX=0.5;entryY=0;entryDx=0;entryDy=0;" edge="1" parent="1" source="1xc2x69jxkYTy_ve66EK-2" target="1xc2x69jxkYTy_ve66EK-5">
          <mxGeometry relative="1" as="geometry" />
        </mxCell>
        <mxCell id="1xc2x69jxkYTy_ve66EK-2" value="вывести &quot;Приветствую, {user.name}&quot;" style="shape=parallelogram;perimeter=parallelogramPerimeter;whiteSpace=wrap;html=1;fixedSize=1;" vertex="1" parent="1">
          <mxGeometry x="279" y="120" width="270" height="60" as="geometry" />
        </mxCell>
        <mxCell id="1xc2x69jxkYTy_ve66EK-11" style="edgeStyle=orthogonalEdgeStyle;rounded=0;orthogonalLoop=1;jettySize=auto;html=1;exitX=0.5;exitY=1;exitDx=0;exitDy=0;entryX=0.5;entryY=0;entryDx=0;entryDy=0;" edge="1" parent="1" source="1xc2x69jxkYTy_ve66EK-5" target="1xc2x69jxkYTy_ve66EK-9">
          <mxGeometry relative="1" as="geometry" />
        </mxCell>
        <mxCell id="1xc2x69jxkYTy_ve66EK-26" style="edgeStyle=orthogonalEdgeStyle;rounded=0;orthogonalLoop=1;jettySize=auto;html=1;exitX=1;exitY=0.5;exitDx=0;exitDy=0;entryX=1;entryY=0.5;entryDx=0;entryDy=0;" edge="1" parent="1" source="1xc2x69jxkYTy_ve66EK-5" target="1xc2x69jxkYTy_ve66EK-25">
          <mxGeometry relative="1" as="geometry">
            <Array as="points">
              <mxPoint x="650" y="250" />
              <mxPoint x="650" y="598" />
            </Array>
          </mxGeometry>
        </mxCell>
        <mxCell id="1xc2x69jxkYTy_ve66EK-5" value="foreach (var user in users)" style="shape=hexagon;perimeter=hexagonPerimeter2;whiteSpace=wrap;html=1;fixedSize=1;" vertex="1" parent="1">
          <mxGeometry x="286" y="220" width="256" height="60" as="geometry" />
        </mxCell>
        <mxCell id="1xc2x69jxkYTy_ve66EK-22" style="edgeStyle=orthogonalEdgeStyle;rounded=0;orthogonalLoop=1;jettySize=auto;html=1;exitX=0;exitY=0.5;exitDx=0;exitDy=0;entryX=0.5;entryY=0;entryDx=0;entryDy=0;" edge="1" parent="1" source="1xc2x69jxkYTy_ve66EK-9" target="1xc2x69jxkYTy_ve66EK-13">
          <mxGeometry relative="1" as="geometry" />
        </mxCell>
        <mxCell id="1xc2x69jxkYTy_ve66EK-24" style="edgeStyle=orthogonalEdgeStyle;rounded=0;orthogonalLoop=1;jettySize=auto;html=1;exitX=1;exitY=0.5;exitDx=0;exitDy=0;" edge="1" parent="1" source="1xc2x69jxkYTy_ve66EK-9">
          <mxGeometry relative="1" as="geometry">
            <mxPoint x="250" y="520" as="targetPoint" />
            <Array as="points">
              <mxPoint x="537" y="360" />
              <mxPoint x="537" y="520" />
            </Array>
          </mxGeometry>
        </mxCell>
        <mxCell id="1xc2x69jxkYTy_ve66EK-9" value="!user.IsPremium" style="rhombus;whiteSpace=wrap;html=1;" vertex="1" parent="1">
          <mxGeometry x="311" y="320" width="206" height="80" as="geometry" />
        </mxCell>
        <mxCell id="1xc2x69jxkYTy_ve66EK-23" style="edgeStyle=orthogonalEdgeStyle;rounded=0;orthogonalLoop=1;jettySize=auto;html=1;exitX=0.5;exitY=1;exitDx=0;exitDy=0;entryX=0;entryY=0.5;entryDx=0;entryDy=0;" edge="1" parent="1" source="1xc2x69jxkYTy_ve66EK-13" target="1xc2x69jxkYTy_ve66EK-5">
          <mxGeometry relative="1" as="geometry">
            <Array as="points">
              <mxPoint x="255" y="520" />
              <mxPoint x="100" y="520" />
              <mxPoint x="100" y="250" />
            </Array>
          </mxGeometry>
        </mxCell>
        <mxCell id="1xc2x69jxkYTy_ve66EK-13" value="Вывести рекламный блок ShowAds()" style="shape=parallelogram;perimeter=parallelogramPerimeter;whiteSpace=wrap;html=1;fixedSize=1;" vertex="1" parent="1">
          <mxGeometry x="155" y="420" width="199" height="80" as="geometry" />
        </mxCell>
        <mxCell id="1xc2x69jxkYTy_ve66EK-16" value="True" style="text;html=1;align=center;verticalAlign=middle;resizable=0;points=[];autosize=1;strokeColor=none;fillColor=none;" vertex="1" parent="1">
          <mxGeometry x="255" y="320" width="50" height="30" as="geometry" />
        </mxCell>
        <mxCell id="1xc2x69jxkYTy_ve66EK-18" value="False" style="text;html=1;align=center;verticalAlign=middle;resizable=0;points=[];autosize=1;strokeColor=none;fillColor=none;" vertex="1" parent="1">
          <mxGeometry x="520" y="320" width="50" height="30" as="geometry" />
        </mxCell>
        <mxCell id="1xc2x69jxkYTy_ve66EK-25" value="конец" style="ellipse;whiteSpace=wrap;html=1;" vertex="1" parent="1">
          <mxGeometry x="354" y="570" width="120" height="55" as="geometry" />
        </mxCell>
      </root>
    </mxGraphModel>
  </diagram>
</mxfile>
